<svg xmlns="http://www.w3.org/2000/svg" style="display:none">
  <!-- Facebook -->
  <symbol id="facebook" viewBox="0 0 24 24">
    <path fill="currentColor" d="M22 12a10 10 0 1 0-11.5 9.9v-7h-2v-3h2v-2.3c0-2 1.2-3.1 3-3.1.9 0 1.8.1 1.8.1v2h-1c-1 0-1.3.6-1.3 1.2V12h2.3l-.4 3h-1.9v7A10 10 0 0 0 22 12"/>
  </symbol>

  <!-- Twitter -->
  <symbol id="twitter" viewBox="0 0 24 24">
    <path fill="currentColor" d="M22.46 6c-.8.4-1.6.6-2.5.8a4.3 4.3 0 0 0 1.9-2.4 8.6 8.6 0 0 1-2.7 1 4.3 4.3 0 0 0-7.4 3c0 .3 0 .7.1 1A12.3 12.3 0 0 1 3 4.7a4.3 4.3 0 0 0 1.3 5.8c-.7 0-1.3-.2-1.9-.5v.1a4.3 4.3 0 0 0 3.4 4.2 4.3 4.3 0 0 1-1.9.1 4.3 4.3 0 0 0 4 3 8.7 8.7 0 0 1-5.4 1.9c-.3 0-.6 0-.8-.1a12.3 12.3 0 0 0 6.6 2c7.9 0 12.2-6.6 12.2-12.2v-.6c.8-.6 1.5-1.3 2-2.1z"/>
  </symbol>

  <!-- TikTok -->
  <symbol id="tiktok" viewBox="0 0 24 24">
    <path fill="currentColor" d="M12 2h3c.2 1.6 1.6 3 3.3 3.2V8c-1.2 0-2.3-.3-3.3-.9v7.6a6.7 6.7 0 1 1-6.7-6.7c.3 0 .7 0 1 .1V11a3.3 3.3 0 1 0 2.3 3.1V2z"/>
  </symbol>

  <!-- Instagram -->
  <symbol id="instagram" viewBox="0 0 24 24">
    <path fill="currentColor" d="M12 2.2c3.2 0 3.6 0 4.9.1 1.2.1 1.9.2 2.4.4.6.2 1 .4 1.5.8.5.4.9.9 1.1 1.5.2.5.3 1.2.4 2.4.1 1.3.1 1.7.1 4.9s0 3.6-.1 4.9c-.1 1.2-.2 1.9-.4 2.4-.2.6-.6 1-1.1 1.5-.4.5-.9.9-1.5 1.1-.5.2-1.2.3-2.4.4-1.3.1-1.7.1-4.9.1s-3.6 0-4.9-.1c-1.2-.1-1.9-.2-2.4-.4-.6-.2-1-.6-1.5-1.1-.5-.4-.9-.9-1.1-1.5-.2-.5-.3-1.2-.4-2.4-.1-1.3-.1-1.7-.1-4.9s0-3.6.1-4.9c.1-1.2.2-1.9.4-2.4.2-.6.6-1 1.1-1.5.4-.5.9-.9 1.5-1.1.5-.2 1.2-.3 2.4-.4 1.3-.1 1.7-.1 4.9-.1m0-2.2c-3.3 0-3.7 0-5 .1-1.3.1-2.2.3-3 .7-.8.4-1.5.9-2.1 1.5-.6.6-1.1 1.3-1.5 2.1-.4.8-.6 1.7-.7 3C2 8.3 2 8.7 2 12s0 3.7.1 5c.1 1.3.3 2.2.7 3 .4.8.9 1.5 1.5 2.1.6.6 1.3 1.1 2.1 1.5.8.4 1.7.6 3 .7 1.3.1 1.7.1 5 .1s3.7 0 5-.1c1.3-.1 2.2-.3 3-.7.8-.4 1.5-.9 2.1-1.5.6-.6 1.1-1.3 1.5-2.1.4-.8.6-1.7.7-3 .1-1.3.1-1.7.1-5s0-3.7-.1-5c-.1-1.3-.3-2.2-.7-3-.4-.8-.9-1.5-1.5-2.1-.6-.6-1.3-1.1-2.1-1.5-.8-.4-1.7-.6-3-.7-1.3-.1-1.7-.1-5-.1z"/>
    <circle fill="currentColor" cx="12" cy="12" r="3"/>
    <circle fill="currentColor" cx="18.4" cy="5.6" r="1.2"/>
  </symbol>
</svg>
