<?xml version="1.0" encoding="UTF-8"?>
<svg version="1.1" xmlns="http://www.w3.org/2000/svg" width="512" height="512">
<path d="M0 0 C1.0120047 -0.00671722 2.0240094 -0.01343445 3.06668091 -0.02035522 C6.4099825 -0.03934236 9.7530834 -0.04325989 13.09643555 -0.04541016 C15.42425112 -0.05183784 17.75206588 -0.05856618 20.07987976 -0.06558228 C24.95968498 -0.07755703 29.8394194 -0.08126291 34.71923828 -0.08007812 C40.96360131 -0.07987499 47.20750895 -0.10717114 53.45176411 -0.14162254 C58.26026991 -0.16389132 63.06866616 -0.16791565 67.87721825 -0.16685867 C70.17885087 -0.16921488 72.48048651 -0.17803949 74.78206825 -0.19352341 C78.00607546 -0.21318106 81.22910103 -0.20734542 84.453125 -0.1953125 C85.87094017 -0.21217102 85.87094017 -0.21217102 87.31739807 -0.22937012 C94.90707589 -0.15761009 101.24280605 2.08583312 106.9206543 7.29052734 C106.9206543 7.95052734 106.9206543 8.61052734 106.9206543 9.29052734 C107.5806543 9.29052734 108.2406543 9.29052734 108.9206543 9.29052734 C109.80422636 10.63379569 110.62693355 12.01728673 111.4206543 13.41552734 C114.43226341 18.12806973 117.6118306 20.19087497 122.4519043 22.82958984 C128.34683565 26.31804606 132.35943281 30.95413555 134.9206543 37.29052734 C135.73184639 41.24448162 136.25442484 45.22947168 136.7956543 49.22802734 C138.74588345 62.28028355 141.84957323 73.69784985 147.9206543 85.47802734 C148.24066406 86.10273926 148.56067383 86.72745117 148.89038086 87.37109375 C154.07139654 96.87310788 164.31307475 100.59079505 174.1862793 103.68115234 C183.95189223 106.51819592 193.70897303 108.1520744 203.82836914 109.12719727 C214.92549388 110.3054178 223.36095801 113.94462264 230.9206543 122.29052734 C231.81723854 123.68073662 232.67520992 125.09700006 233.4831543 126.54052734 C235.65641775 130.38095181 237.81245214 131.47413781 241.79174805 133.16552734 C246.89949067 135.86466473 251.8715761 140.84143637 253.9206543 146.29052734 C254.12241055 149.28661799 254.2143926 152.19010706 254.21118164 155.18652344 C254.22125748 156.53356606 254.22125748 156.53356606 254.23153687 157.90782166 C254.25053507 160.87659233 254.25444198 163.84513716 254.2565918 166.81396484 C254.26301841 168.87895806 254.26974667 170.94395036 254.27676392 173.00894165 C254.28874121 177.33817659 254.29244427 181.6673317 254.29125977 185.99658203 C254.29105654 191.54056761 254.31836023 197.08404076 254.35280418 202.62790489 C254.37505538 206.89332423 254.37909785 211.1586199 254.37804031 215.42409134 C254.38039889 217.46780793 254.38923684 219.51152781 254.40470505 221.55518723 C254.42432888 224.41573594 254.41854106 227.27517512 254.40649414 230.13574219 C254.41773315 230.97750504 254.42897217 231.81926788 254.44055176 232.6865387 C254.38248858 238.11969802 253.50525776 241.13572558 249.9206543 245.29052734 C249.2606543 245.29052734 248.6006543 245.29052734 247.9206543 245.29052734 C247.9206543 245.95052734 247.9206543 246.61052734 247.9206543 247.29052734 C246.1628418 248.72802734 246.1628418 248.72802734 243.7956543 250.29052734 C243.02995117 250.80615234 242.26424805 251.32177734 241.4753418 251.85302734 C215.69898376 266.35715542 169.20887769 249.53806125 142.9206543 242.29052734 C140.58701472 241.62493346 138.25364716 240.9583845 135.9206543 240.29052734 C135.92341968 240.8404686 135.92618505 241.39040985 135.92903423 241.95701599 C135.9958535 255.45959147 136.04501003 268.96213723 136.07609081 282.46484375 C136.09163484 288.99518062 136.11266302 295.52539668 136.14697266 302.05566406 C136.17997319 308.37754474 136.19759155 314.69931047 136.20528603 321.02127075 C136.21075751 323.41295171 136.22143747 325.8046276 136.23784447 328.19625854 C136.36838511 348.0450182 135.56900398 368.1402275 130.1081543 387.35302734 C129.72022705 388.77047241 129.72022705 388.77047241 129.32446289 390.21655273 C124.19033032 408.45034215 116.08942906 425.96359363 104.9206543 441.29052734 C104.53071289 441.8285498 104.14077148 442.36657227 103.73901367 442.92089844 C82.15040395 472.40549966 51.39643314 494.32384576 16.4831543 505.16552734 C15.65251465 505.4272876 14.821875 505.68904785 13.96606445 505.95874023 C10.96817965 506.83539528 7.96226388 507.57848156 4.9206543 508.29052734 C4.2028479 508.46064331 3.4850415 508.63075928 2.7454834 508.80603027 C-12.51728436 512.30894783 -27.43441012 512.91407134 -43.05541992 512.81201172 C-46.94293853 512.7905902 -50.82860181 512.81192043 -54.71606445 512.83740234 C-106.78186534 512.89577994 -154.30102213 494.30990502 -192.3527832 458.77099609 C-195.0368332 456.26182229 -195.0368332 456.26182229 -197.9309082 454.09130859 C-198.63989258 453.49705078 -199.34887695 452.90279297 -200.0793457 452.29052734 C-200.0793457 451.63052734 -200.0793457 450.97052734 -200.0793457 450.29052734 C-200.67013916 450.02046875 -201.26093262 449.75041016 -201.86962891 449.47216797 C-204.06563372 448.29785979 -205.61854989 447.07580504 -207.43481445 445.38427734 C-208.05259766 444.81080566 -208.67038086 444.23733398 -209.30688477 443.64648438 C-209.95367187 443.03401855 -210.60045898 442.42155273 -211.2668457 441.79052734 C-211.938125 441.15614746 -212.6094043 440.52176758 -213.30102539 439.86816406 C-230.67683277 423.30959798 -243.89523457 403.77414663 -251.9543457 381.10302734 C-252.22859375 380.33249023 -252.5028418 379.56195313 -252.78540039 378.76806641 C-253.6198286 376.29173225 -254.36189533 373.80322369 -255.0793457 371.29052734 C-255.35746094 370.37392334 -255.63557617 369.45731934 -255.92211914 368.51293945 C-258.89159815 357.14435439 -258.60221598 345.56422579 -258.58032227 333.8894043 C-258.57935421 330.25992381 -258.62099197 326.63259254 -258.6652832 323.00341797 C-258.84092405 288.7681988 -247.1083161 257.28392761 -226.0793457 230.29052734 C-225.65669434 229.74299805 -225.23404297 229.19546875 -224.79858398 228.63134766 C-219.6667724 222.02293915 -219.6667724 222.02293915 -217.0793457 219.29052734 C-216.4193457 219.29052734 -215.7593457 219.29052734 -215.0793457 219.29052734 C-214.7080957 218.36240234 -214.7080957 218.36240234 -214.3293457 217.41552734 C-212.87305931 214.93984048 -211.70122064 214.33927732 -209.0793457 213.29052734 C-209.0793457 212.63052734 -209.0793457 211.97052734 -209.0793457 211.29052734 C-206.12629821 208.54841182 -202.91522014 206.11758864 -199.75170898 203.62304688 C-198.08112834 202.29194773 -196.43642521 200.93372466 -194.79418945 199.56787109 C-186.43010278 192.6882247 -177.71511278 187.21633329 -168.0793457 182.29052734 C-167.39469238 181.93861328 -166.71003906 181.58669922 -166.00463867 181.22412109 C-130.4757627 163.18932758 -89.9390604 158.20318501 -50.5168457 162.04052734 C-49.82389404 162.10216064 -49.13094238 162.16379395 -48.41699219 162.22729492 C-44.00651892 162.73833881 -40.01408064 163.91306452 -35.81005859 165.34228516 C-34.19775108 165.88795135 -34.19775108 165.88795135 -32.5528717 166.44464111 C-31.73660812 166.72378357 -30.92034454 167.00292603 -30.0793457 167.29052734 C-30.08984168 166.21295717 -30.08984168 166.21295717 -30.1005497 165.1136179 C-30.27031942 147.61066867 -30.42857748 130.10765297 -30.57412148 112.60448551 C-30.64478207 104.13998922 -30.71929728 95.67556005 -30.80297852 87.21118164 C-30.87592955 79.83116615 -30.94155487 72.45112753 -30.99848974 65.07097048 C-31.02887201 61.16548057 -31.06285015 57.2600986 -31.10560989 53.35472298 C-31.1457989 49.6735487 -31.17613971 45.99242042 -31.19915962 42.31110001 C-31.214065 40.32678652 -31.23920463 38.34255802 -31.26472473 36.35835266 C-31.31592485 25.52358904 -30.32804689 16.76593181 -23.0793457 8.29052734 C-15.79153211 1.61597399 -9.69999421 -0.00924205 0 0 Z M-82.61450195 327.22412109 C-87.51468565 334.13664689 -90.22240571 341.75748071 -90.2668457 350.16552734 C-90.28102539 351.37982422 -90.29520508 352.59412109 -90.30981445 353.84521484 C-90.08801303 357.16095817 -89.59044269 359.35437447 -88.0793457 362.29052734 C-81.73091595 366.82512003 -71.37520475 365.99449392 -64.05200195 364.79443359 C-51.45460834 361.92475706 -42.18309492 356.6045071 -34.45043945 346.07177734 C-31.09082376 339.2568304 -30.7128653 331.77320227 -30.3918457 324.29052734 C-30.32126953 323.0046875 -30.32126953 323.0046875 -30.24926758 321.69287109 C-30.14619708 319.56049456 -30.10687641 317.42521591 -30.0793457 315.29052734 C-32.33145162 313.03842143 -37.04287939 313.53211827 -40.0793457 313.29052734 C-40.75094727 313.23509766 -41.42254883 313.17966797 -42.11450195 313.12255859 C-56.28310185 312.54926264 -72.78430868 316.48060913 -82.61450195 327.22412109 Z " fill="#FEFEFE" transform="translate(258.079345703125,-0.29052734375)"/>
<path d="M0 0 C1.0120047 -0.00671722 2.0240094 -0.01343445 3.06668091 -0.02035522 C6.4099825 -0.03934236 9.7530834 -0.04325989 13.09643555 -0.04541016 C15.42425112 -0.05183784 17.75206588 -0.05856618 20.07987976 -0.06558228 C24.95968498 -0.07755703 29.8394194 -0.08126291 34.71923828 -0.08007812 C40.96360131 -0.07987499 47.20750895 -0.10717114 53.45176411 -0.14162254 C58.26026991 -0.16389132 63.06866616 -0.16791565 67.87721825 -0.16685867 C70.17885087 -0.16921488 72.48048651 -0.17803949 74.78206825 -0.19352341 C78.00607546 -0.21318106 81.22910103 -0.20734542 84.453125 -0.1953125 C85.87094017 -0.21217102 85.87094017 -0.21217102 87.31739807 -0.22937012 C94.90707589 -0.15761009 101.24280605 2.08583312 106.9206543 7.29052734 C106.9206543 7.95052734 106.9206543 8.61052734 106.9206543 9.29052734 C107.5806543 9.29052734 108.2406543 9.29052734 108.9206543 9.29052734 C109.80422636 10.63379569 110.62693355 12.01728673 111.4206543 13.41552734 C114.43226341 18.12806973 117.6118306 20.19087497 122.4519043 22.82958984 C128.34683565 26.31804606 132.35943281 30.95413555 134.9206543 37.29052734 C135.73184639 41.24448162 136.25442484 45.22947168 136.7956543 49.22802734 C138.74588345 62.28028355 141.84957323 73.69784985 147.9206543 85.47802734 C148.24066406 86.10273926 148.56067383 86.72745117 148.89038086 87.37109375 C154.07139654 96.87310788 164.31307475 100.59079505 174.1862793 103.68115234 C183.95189223 106.51819592 193.70897303 108.1520744 203.82836914 109.12719727 C214.92549388 110.3054178 223.36095801 113.94462264 230.9206543 122.29052734 C231.81723854 123.68073662 232.67520992 125.09700006 233.4831543 126.54052734 C235.65641775 130.38095181 237.81245214 131.47413781 241.79174805 133.16552734 C246.89949067 135.86466473 251.8715761 140.84143637 253.9206543 146.29052734 C254.12241055 149.28661799 254.2143926 152.19010706 254.21118164 155.18652344 C254.22125748 156.53356606 254.22125748 156.53356606 254.23153687 157.90782166 C254.25053507 160.87659233 254.25444198 163.84513716 254.2565918 166.81396484 C254.26301841 168.87895806 254.26974667 170.94395036 254.27676392 173.00894165 C254.28874121 177.33817659 254.29244427 181.6673317 254.29125977 185.99658203 C254.29105654 191.54056761 254.31836023 197.08404076 254.35280418 202.62790489 C254.37505538 206.89332423 254.37909785 211.1586199 254.37804031 215.42409134 C254.38039889 217.46780793 254.38923684 219.51152781 254.40470505 221.55518723 C254.42432888 224.41573594 254.41854106 227.27517512 254.40649414 230.13574219 C254.41773315 230.97750504 254.42897217 231.81926788 254.44055176 232.6865387 C254.38248858 238.11969802 253.50525776 241.13572558 249.9206543 245.29052734 C249.2606543 245.29052734 248.6006543 245.29052734 247.9206543 245.29052734 C247.9206543 245.95052734 247.9206543 246.61052734 247.9206543 247.29052734 C246.1628418 248.72802734 246.1628418 248.72802734 243.7956543 250.29052734 C243.02995117 250.80615234 242.26424805 251.32177734 241.4753418 251.85302734 C215.69898376 266.35715542 169.20887769 249.53806125 142.9206543 242.29052734 C140.58701472 241.62493346 138.25364716 240.9583845 135.9206543 240.29052734 C135.92341968 240.8404686 135.92618505 241.39040985 135.92903423 241.95701599 C135.9958535 255.45959147 136.04501003 268.96213723 136.07609081 282.46484375 C136.09163484 288.99518062 136.11266302 295.52539668 136.14697266 302.05566406 C136.17997319 308.37754474 136.19759155 314.69931047 136.20528603 321.02127075 C136.21075751 323.41295171 136.22143747 325.8046276 136.23784447 328.19625854 C136.36838511 348.0450182 135.56900398 368.1402275 130.1081543 387.35302734 C129.72022705 388.77047241 129.72022705 388.77047241 129.32446289 390.21655273 C124.19033032 408.45034215 116.08942906 425.96359363 104.9206543 441.29052734 C104.53071289 441.8285498 104.14077148 442.36657227 103.73901367 442.92089844 C82.15040395 472.40549966 51.39643314 494.32384576 16.4831543 505.16552734 C15.65251465 505.4272876 14.821875 505.68904785 13.96606445 505.95874023 C10.96817965 506.83539528 7.96226388 507.57848156 4.9206543 508.29052734 C4.2028479 508.46064331 3.4850415 508.63075928 2.7454834 508.80603027 C-12.51728436 512.30894783 -27.43441012 512.91407134 -43.05541992 512.81201172 C-46.94293853 512.7905902 -50.82860181 512.81192043 -54.71606445 512.83740234 C-106.78186534 512.89577994 -154.30102213 494.30990502 -192.3527832 458.77099609 C-195.0368332 456.26182229 -195.0368332 456.26182229 -197.9309082 454.09130859 C-198.63989258 453.49705078 -199.34887695 452.90279297 -200.0793457 452.29052734 C-200.0793457 451.63052734 -200.0793457 450.97052734 -200.0793457 450.29052734 C-200.67013916 450.02046875 -201.26093262 449.75041016 -201.86962891 449.47216797 C-204.06563372 448.29785979 -205.61854989 447.07580504 -207.43481445 445.38427734 C-208.05259766 444.81080566 -208.67038086 444.23733398 -209.30688477 443.64648438 C-209.95367187 443.03401855 -210.60045898 442.42155273 -211.2668457 441.79052734 C-211.938125 441.15614746 -212.6094043 440.52176758 -213.30102539 439.86816406 C-230.67683277 423.30959798 -243.89523457 403.77414663 -251.9543457 381.10302734 C-252.22859375 380.33249023 -252.5028418 379.56195313 -252.78540039 378.76806641 C-253.6198286 376.29173225 -254.36189533 373.80322369 -255.0793457 371.29052734 C-255.35746094 370.37392334 -255.63557617 369.45731934 -255.92211914 368.51293945 C-258.89159815 357.14435439 -258.60221598 345.56422579 -258.58032227 333.8894043 C-258.57935421 330.25992381 -258.62099197 326.63259254 -258.6652832 323.00341797 C-258.84092405 288.7681988 -247.1083161 257.28392761 -226.0793457 230.29052734 C-225.65669434 229.74299805 -225.23404297 229.19546875 -224.79858398 228.63134766 C-219.6667724 222.02293915 -219.6667724 222.02293915 -217.0793457 219.29052734 C-216.4193457 219.29052734 -215.7593457 219.29052734 -215.0793457 219.29052734 C-214.7080957 218.36240234 -214.7080957 218.36240234 -214.3293457 217.41552734 C-212.87305931 214.93984048 -211.70122064 214.33927732 -209.0793457 213.29052734 C-209.0793457 212.63052734 -209.0793457 211.97052734 -209.0793457 211.29052734 C-206.12629821 208.54841182 -202.91522014 206.11758864 -199.75170898 203.62304688 C-198.08112834 202.29194773 -196.43642521 200.93372466 -194.79418945 199.56787109 C-186.43010278 192.6882247 -177.71511278 187.21633329 -168.0793457 182.29052734 C-167.39469238 181.93861328 -166.71003906 181.58669922 -166.00463867 181.22412109 C-130.4757627 163.18932758 -89.9390604 158.20318501 -50.5168457 162.04052734 C-49.82389404 162.10216064 -49.13094238 162.16379395 -48.41699219 162.22729492 C-44.00651892 162.73833881 -40.01408064 163.91306452 -35.81005859 165.34228516 C-34.19775108 165.88795135 -34.19775108 165.88795135 -32.5528717 166.44464111 C-31.73660812 166.72378357 -30.92034454 167.00292603 -30.0793457 167.29052734 C-30.08984168 166.21295717 -30.08984168 166.21295717 -30.1005497 165.1136179 C-30.27031942 147.61066867 -30.42857748 130.10765297 -30.57412148 112.60448551 C-30.64478207 104.13998922 -30.71929728 95.67556005 -30.80297852 87.21118164 C-30.87592955 79.83116615 -30.94155487 72.45112753 -30.99848974 65.07097048 C-31.02887201 61.16548057 -31.06285015 57.2600986 -31.10560989 53.35472298 C-31.1457989 49.6735487 -31.17613971 45.99242042 -31.19915962 42.31110001 C-31.214065 40.32678652 -31.23920463 38.34255802 -31.26472473 36.35835266 C-31.31592485 25.52358904 -30.32804689 16.76593181 -23.0793457 8.29052734 C-15.79153211 1.61597399 -9.69999421 -0.00924205 0 0 Z M-1.0793457 24.29052734 C-1.09336426 38.3340979 -1.09336426 38.3340979 -1.10766602 52.66137695 C-1.14041564 82.6620512 -1.19273045 112.66266304 -1.25726666 142.66328507 C-1.26728339 147.3280133 -1.27712764 151.99274188 -1.28686523 156.6574707 C-1.28977729 158.0503895 -1.28977729 158.0503895 -1.29274818 159.47144807 C-1.32371814 174.48170087 -1.34073484 189.4919384 -1.35253993 204.50221711 C-1.36497747 219.91910176 -1.39253741 235.33590665 -1.43395877 250.75274092 C-1.45901984 260.25576855 -1.4724684 269.75866381 -1.47077528 279.26172496 C-1.47074538 285.78987177 -1.48548448 292.31788435 -1.51150998 298.84597879 C-1.52607026 302.60503847 -1.53443342 306.36382292 -1.52514839 310.12290573 C-1.43850327 350.01245537 -1.43850327 350.01245537 -15.0793457 366.29052734 C-15.7084082 367.04849609 -16.3374707 367.80646484 -16.9855957 368.58740234 C-29.65489025 382.43773283 -49.31208461 389.66930403 -67.73168945 390.57568359 C-82.41908077 390.99200973 -95.7400501 388.73881598 -109.0793457 382.29052734 C-109.87985352 381.91025391 -110.68036133 381.52998047 -111.50512695 381.13818359 C-124.76102325 374.33852695 -133.29976028 363.16195264 -137.9387207 349.14599609 C-141.94750276 334.51021827 -140.71200289 316.65570765 -133.46606445 303.32177734 C-131.78196305 300.54357014 -129.9925922 297.91489201 -128.0793457 295.29052734 C-127.42192383 294.33919922 -127.42192383 294.33919922 -126.7512207 293.36865234 C-117.73637637 281.52988087 -101.72872569 274.49213612 -87.6418457 271.41552734 C-74.20845821 269.83512882 -60.60537834 270.29052734 -47.0793457 270.29052734 C-47.0793457 243.23052734 -47.0793457 216.17052734 -47.0793457 188.29052734 C-55.42388955 187.45607296 -63.50074252 187.10433174 -71.85351562 187.10522461 C-74.11323379 187.10305482 -76.37244883 187.08488577 -78.63208008 187.06591797 C-119.7636264 186.90552778 -157.06953227 200.8774802 -187.0793457 229.29052734 C-188.42319336 230.53769531 -188.42319336 230.53769531 -189.79418945 231.81005859 C-207.74781601 249.00827309 -219.73770569 271.69412132 -226.3918457 295.47802734 C-226.64667725 296.38053223 -226.90150879 297.28303711 -227.1640625 298.21289062 C-229.95728538 308.67914344 -230.24403867 319.00727013 -230.2043457 329.79052734 C-230.20821289 330.84111328 -230.21208008 331.89169922 -230.21606445 332.97412109 C-230.20225778 344.14372334 -229.24201224 354.05929413 -225.8293457 364.72802734 C-225.51070557 365.73937744 -225.19206543 366.75072754 -224.86376953 367.79272461 C-219.27573486 385.2784109 -211.20468873 400.41399218 -199.0793457 414.29052734 C-198.64444824 414.79100586 -198.20955078 415.29148437 -197.76147461 415.80712891 C-192.92381776 421.3420906 -188.36005761 426.34289281 -182.0793457 430.29052734 C-180.79865089 431.21451025 -179.5265866 432.15067421 -178.2668457 433.10302734 C-177.62489258 433.58755371 -176.98293945 434.07208008 -176.3215332 434.57128906 C-174.87886343 435.6774825 -173.44893155 436.80059724 -172.03564453 437.9440918 C-166.8197052 442.14214066 -161.51762602 445.5821451 -155.5793457 448.66552734 C-154.23888184 449.36162109 -154.23888184 449.36162109 -152.87133789 450.07177734 C-137.46454664 457.83082185 -121.20327326 463.77512928 -104.0612793 465.99902344 C-102.05963637 466.2934262 -100.10617878 466.68985715 -98.13012695 467.12255859 C-59.21369564 475.33886649 -15.650371 467.51034547 18.2956543 447.10302734 C27.19990862 441.2679983 35.1410741 434.53996182 42.9206543 427.29052734 C44.0324707 426.27732422 44.0324707 426.27732422 45.16674805 425.24365234 C69.92251457 401.76759568 84.31302638 365.42352208 85.35513306 331.65060425 C85.57245975 322.51366392 85.50184724 313.37377653 85.42762399 304.23544955 C85.39587032 299.64984953 85.39339189 295.0642239 85.38749695 290.47853088 C85.37209982 281.83771184 85.33126775 273.19721791 85.2807495 264.55654055 C85.22440968 254.70129736 85.19725857 244.84603673 85.17227232 234.99067199 C85.12033527 214.7571106 85.03267527 194.52383964 84.9206543 174.29052734 C85.5806543 174.29052734 86.2406543 174.29052734 86.9206543 174.29052734 C86.9206543 174.95052734 86.9206543 175.61052734 86.9206543 176.29052734 C88.38416509 177.50154544 88.38416509 177.50154544 90.33081055 178.64599609 C91.06485107 179.09990723 91.7988916 179.55381836 92.55517578 180.02148438 C93.35640869 180.50214355 94.1576416 180.98280273 94.9831543 181.47802734 C95.80952393 181.97415527 96.63589355 182.4702832 97.48730469 182.98144531 C122.02317312 197.5049402 149.54486561 205.15821213 177.5456543 209.54052734 C178.64200195 209.71624268 179.73834961 209.89195801 180.86791992 210.07299805 C189.46792446 211.34007733 197.00696073 211.29052734 205.9206543 211.29052734 C205.9206543 191.82052734 205.9206543 172.35052734 205.9206543 152.29052734 C201.4656543 151.13552734 197.0106543 149.98052734 192.4206543 148.79052734 C181.15168075 145.75577677 170.99464195 142.22298674 160.9206543 136.29052734 C160.00026367 135.78908203 159.07987305 135.28763672 158.1315918 134.77099609 C149.00825351 129.64441436 141.26384787 122.80890759 134.0144043 115.32177734 C131.59947637 112.97893681 129.04492886 110.89571463 126.4206543 108.79052734 C106.95085469 93.01650813 94.64089886 71.61662001 88.9206543 47.29052734 C88.2606543 47.29052734 87.6006543 47.29052734 86.9206543 47.29052734 C86.5906543 39.70052734 86.2606543 32.11052734 85.9206543 24.29052734 C57.2106543 24.29052734 28.5006543 24.29052734 -1.0793457 24.29052734 Z M-82.61450195 327.22412109 C-87.51468565 334.13664689 -90.22240571 341.75748071 -90.2668457 350.16552734 C-90.28102539 351.37982422 -90.29520508 352.59412109 -90.30981445 353.84521484 C-90.08801303 357.16095817 -89.59044269 359.35437447 -88.0793457 362.29052734 C-81.73091595 366.82512003 -71.37520475 365.99449392 -64.05200195 364.79443359 C-51.45460834 361.92475706 -42.18309492 356.6045071 -34.45043945 346.07177734 C-31.09082376 339.2568304 -30.7128653 331.77320227 -30.3918457 324.29052734 C-30.32126953 323.0046875 -30.32126953 323.0046875 -30.24926758 321.69287109 C-30.14619708 319.56049456 -30.10687641 317.42521591 -30.0793457 315.29052734 C-32.33145162 313.03842143 -37.04287939 313.53211827 -40.0793457 313.29052734 C-40.75094727 313.23509766 -41.42254883 313.17966797 -42.11450195 313.12255859 C-56.28310185 312.54926264 -72.78430868 316.48060913 -82.61450195 327.22412109 Z " fill="#FBFAFA" transform="translate(258.079345703125,-0.29052734375)"/>
<path d="M0 0 C6.6 0.66 13.2 1.32 20 2 C20 27.08 20 52.16 20 78 C8.73922902 78 8.73922902 78 4.7734375 77.44921875 C3.89598877 77.3296582 3.01854004 77.21009766 2.11450195 77.08691406 C1.21046631 76.95510742 0.30643066 76.82330078 -0.625 76.6875 C-1.59155518 76.54924805 -2.55811035 76.41099609 -3.55395508 76.26855469 C-6.37132766 75.85802392 -9.18599596 75.43296378 -12 75 C-12.70398926 74.89316895 -13.40797852 74.78633789 -14.13330078 74.67626953 C-23.5148527 73.20942354 -32.68099045 70.90506462 -41.875 68.5625 C-43.01670654 68.27407227 -44.15841309 67.98564453 -45.3347168 67.68847656 C-62.8152382 63.13111415 -85.94734144 55.05265856 -99 42 C-98.99962297 42.80117532 -98.99924595 43.60235064 -98.9988575 44.42780399 C-98.99168778 64.07506662 -99.01810981 83.72203397 -99.0802784 103.36920261 C-99.10956491 112.87111113 -99.128174 122.37279952 -99.12011719 131.87475586 C-99.11310982 140.17296258 -99.12769259 148.47082746 -99.16643608 156.76895088 C-99.18617468 161.14807749 -99.19630658 165.52667038 -99.18042374 169.90582466 C-99.08630061 199.03561721 -101.04586602 227.32575912 -114 254 C-114.33290039 254.69496582 -114.66580078 255.38993164 -115.00878906 256.10595703 C-119.17710517 264.67687877 -124.0930103 272.50438806 -130 280 C-130.721875 280.92554688 -131.44375 281.85109375 -132.1875 282.8046875 C-151.47260919 306.97803617 -176.49085292 321.5156702 -206 330 C-206.72026367 330.21237305 -207.44052734 330.42474609 -208.18261719 330.64355469 C-253.41590789 343.79102136 -304.07902873 335.13228807 -345 313 C-355.50038243 307.22317988 -364.62301202 300.37127091 -373.50488281 292.34814453 C-375.60459763 290.45483538 -377.74037351 288.60375458 -379.875 286.75 C-380.91735852 285.83412013 -381.95935977 284.91783176 -383 284 C-382.67 283.34 -382.34 282.68 -382 282 C-381.28199219 282.53367187 -380.56398438 283.06734375 -379.82421875 283.6171875 C-359.22443033 298.4449306 -335.29013502 309.42516969 -309.98193359 312.70849609 C-307.98029066 313.00289886 -306.02683307 313.39932981 -304.05078125 313.83203125 C-265.13434993 322.04833915 -221.5710253 314.21981813 -187.625 293.8125 C-178.71908777 287.97638451 -170.78804326 281.24262655 -163 274 C-162.33226562 273.39800781 -161.66453125 272.79601562 -160.9765625 272.17578125 C-136.47633484 249.12556706 -122.71753725 212.47453899 -121.52670288 179.3600769 C-121.26080169 170.22417491 -121.27416269 161.08383391 -121.29110122 151.94492221 C-121.29427443 147.35921247 -121.26905366 142.77364967 -121.24714661 138.18800354 C-121.21002739 129.54731166 -121.19757789 120.90677701 -121.1945222 112.26601321 C-121.18979604 102.41064936 -121.15676012 92.55543964 -121.12162435 82.70014465 C-121.05010881 62.46678052 -121.01324069 42.23348087 -121 22 C-120.34 22 -119.68 22 -119 22 C-119 22.66 -119 23.32 -119 24 C-118.29617188 24.25394531 -117.59234375 24.50789063 -116.8671875 24.76953125 C-113.70342657 26.12727606 -111.01441897 27.81636227 -108.125 29.6875 C-76.06146114 49.70564541 -37.11075001 56.52595 0 59 C0 39.53 0 20.06 0 0 Z " fill="#FF0450" transform="translate(464,152)"/>
<path d="M0 0 C28.71 0 57.42 0 87 0 C87.33 6.27 87.66 12.54 88 19 C65.89 19 43.78 19 21 19 C21.02094727 28.13461914 21.04189453 37.26923828 21.06347656 46.68066406 C21.12779067 75.96852042 21.17221872 105.25637711 21.20426132 134.54428585 C21.20926364 139.09999934 21.21444098 143.65571261 21.21972656 148.21142578 C21.2207758 149.11831708 21.22182505 150.02520837 21.22290608 150.95958123 C21.24027144 165.60895225 21.2717876 180.25825995 21.30861118 194.90759352 C21.34612866 209.95945132 21.3682586 225.01127614 21.37635398 240.06317878 C21.38181944 249.3374573 21.39902823 258.61155677 21.43166587 267.88578013 C21.45294747 274.26112586 21.45916949 280.63638017 21.45400551 287.01175877 C21.45146473 290.68009163 21.45512403 294.3481135 21.4768219 298.01638985 C21.62036319 323.59127972 20.97886092 346.1804476 2.6875 365.75 C-14.17072047 381.72899355 -36.46647688 385.6318421 -58.78417969 385.09326172 C-63.33974058 384.9015226 -67.59897997 384.15327935 -72 383 C-73.0209375 382.75507813 -74.041875 382.51015625 -75.09375 382.2578125 C-89.14050803 378.4785657 -101.05621426 370.38300003 -110 359 C-109.67 358.34 -109.34 357.68 -109 357 C-108.00613281 357.66128906 -108.00613281 357.66128906 -106.9921875 358.3359375 C-103.49749306 360.27946208 -99.93149231 361.4723799 -96.125 362.625 C-95.10212891 362.94984375 -95.10212891 362.94984375 -94.05859375 363.28125 C-74.1238647 369.43253782 -51.7626545 366.74535944 -33.42089844 357.13037109 C-23.97073966 351.91723287 -16.83811255 345.34436346 -10 337 C-9.49339844 336.39929688 -8.98679687 335.79859375 -8.46484375 335.1796875 C1.85258952 321.10759198 -0.41060482 300.08237626 -0.45119452 283.64947164 C-0.45619197 279.83305782 -0.43798999 276.01674021 -0.42277527 272.20036316 C-0.39958698 265.60737227 -0.3907092 259.01449099 -0.39188385 252.42146111 C-0.39356094 242.8893757 -0.37313888 233.35743538 -0.34752855 223.82538886 C-0.30655649 208.35584899 -0.28316242 192.88633543 -0.27099609 177.41674805 C-0.25914797 162.40012081 -0.23891349 147.383543 -0.20751953 132.36694336 C-0.20558343 131.43946704 -0.20364733 130.51199072 -0.20165256 129.55640905 C-0.1918872 124.90297931 -0.18195824 120.24954994 -0.17194796 115.59612072 C-0.08927054 77.06408833 -0.03846347 38.53210686 0 0 Z " fill="#08F7EF" transform="translate(257,24)"/>
<path d="M0 0 C1.0120047 -0.00671722 2.0240094 -0.01343445 3.06668091 -0.02035522 C6.4099825 -0.03934236 9.7530834 -0.04325989 13.09643555 -0.04541016 C15.42425112 -0.05183784 17.75206588 -0.05856618 20.07987976 -0.06558228 C24.95968498 -0.07755703 29.8394194 -0.08126291 34.71923828 -0.08007812 C40.96360131 -0.07987499 47.20750895 -0.10717114 53.45176411 -0.14162254 C58.26026991 -0.16389132 63.06866616 -0.16791565 67.87721825 -0.16685867 C70.17885087 -0.16921488 72.48048651 -0.17803949 74.78206825 -0.19352341 C78.00607546 -0.21318106 81.22910103 -0.20734542 84.453125 -0.1953125 C85.87094017 -0.21217102 85.87094017 -0.21217102 87.31739807 -0.22937012 C94.90707589 -0.15761009 101.24280605 2.08583312 106.9206543 7.29052734 C106.9206543 7.95052734 106.9206543 8.61052734 106.9206543 9.29052734 C107.5806543 9.29052734 108.2406543 9.29052734 108.9206543 9.29052734 C109.80422636 10.63379569 110.62693355 12.01728673 111.4206543 13.41552734 C114.43226341 18.12806973 117.6118306 20.19087497 122.4519043 22.82958984 C128.34683565 26.31804606 132.35943281 30.95413555 134.9206543 37.29052734 C135.73184639 41.24448162 136.25442484 45.22947168 136.7956543 49.22802734 C138.74588345 62.28028355 141.84957323 73.69784985 147.9206543 85.47802734 C148.24066406 86.10273926 148.56067383 86.72745117 148.89038086 87.37109375 C154.07139654 96.87310788 164.31307475 100.59079505 174.1862793 103.68115234 C183.95189223 106.51819592 193.70897303 108.1520744 203.82836914 109.12719727 C214.92549388 110.3054178 223.36095801 113.94462264 230.9206543 122.29052734 C231.81723854 123.68073662 232.67520992 125.09700006 233.4831543 126.54052734 C235.65641775 130.38095181 237.81245214 131.47413781 241.79174805 133.16552734 C246.89949067 135.86466473 251.8715761 140.84143637 253.9206543 146.29052734 C254.12241055 149.28661799 254.2143926 152.19010706 254.21118164 155.18652344 C254.22125748 156.53356606 254.22125748 156.53356606 254.23153687 157.90782166 C254.25053507 160.87659233 254.25444198 163.84513716 254.2565918 166.81396484 C254.26301841 168.87895806 254.26974667 170.94395036 254.27676392 173.00894165 C254.28874121 177.33817659 254.29244427 181.6673317 254.29125977 185.99658203 C254.29105654 191.54056761 254.31836023 197.08404076 254.35280418 202.62790489 C254.37505538 206.89332423 254.37909785 211.1586199 254.37804031 215.42409134 C254.38039889 217.46780793 254.38923684 219.51152781 254.40470505 221.55518723 C254.42432888 224.41573594 254.41854106 227.27517512 254.40649414 230.13574219 C254.41773315 230.97750504 254.42897217 231.81926788 254.44055176 232.6865387 C254.38248858 238.11969802 253.50525776 241.13572558 249.9206543 245.29052734 C249.2606543 245.29052734 248.6006543 245.29052734 247.9206543 245.29052734 C247.9206543 245.95052734 247.9206543 246.61052734 247.9206543 247.29052734 C246.1628418 248.72802734 246.1628418 248.72802734 243.7956543 250.29052734 C243.02995117 250.80615234 242.26424805 251.32177734 241.4753418 251.85302734 C215.69898376 266.35715542 169.20887769 249.53806125 142.9206543 242.29052734 C140.58701472 241.62493346 138.25364716 240.9583845 135.9206543 240.29052734 C135.92341968 240.8404686 135.92618505 241.39040985 135.92903423 241.95701599 C135.9958535 255.45959147 136.04501003 268.96213723 136.07609081 282.46484375 C136.09163484 288.99518062 136.11266302 295.52539668 136.14697266 302.05566406 C136.17997319 308.37754474 136.19759155 314.69931047 136.20528603 321.02127075 C136.21075751 323.41295171 136.22143747 325.8046276 136.23784447 328.19625854 C136.36838511 348.0450182 135.56900398 368.1402275 130.1081543 387.35302734 C129.72022705 388.77047241 129.72022705 388.77047241 129.32446289 390.21655273 C124.19033032 408.45034215 116.08942906 425.96359363 104.9206543 441.29052734 C104.53071289 441.8285498 104.14077148 442.36657227 103.73901367 442.92089844 C82.15040395 472.40549966 51.39643314 494.32384576 16.4831543 505.16552734 C15.65251465 505.4272876 14.821875 505.68904785 13.96606445 505.95874023 C10.96817965 506.83539528 7.96226388 507.57848156 4.9206543 508.29052734 C4.2028479 508.46064331 3.4850415 508.63075928 2.7454834 508.80603027 C-12.51728436 512.30894783 -27.43441012 512.91407134 -43.05541992 512.81201172 C-46.94293853 512.7905902 -50.82860181 512.81192043 -54.71606445 512.83740234 C-106.78186534 512.89577994 -154.30102213 494.30990502 -192.3527832 458.77099609 C-195.0368332 456.26182229 -195.0368332 456.26182229 -197.9309082 454.09130859 C-198.63989258 453.49705078 -199.34887695 452.90279297 -200.0793457 452.29052734 C-200.0793457 451.63052734 -200.0793457 450.97052734 -200.0793457 450.29052734 C-200.67013916 450.02046875 -201.26093262 449.75041016 -201.86962891 449.47216797 C-204.06563372 448.29785979 -205.61854989 447.07580504 -207.43481445 445.38427734 C-208.05259766 444.81080566 -208.67038086 444.23733398 -209.30688477 443.64648438 C-209.95367187 443.03401855 -210.60045898 442.42155273 -211.2668457 441.79052734 C-211.938125 441.15614746 -212.6094043 440.52176758 -213.30102539 439.86816406 C-230.67683277 423.30959798 -243.89523457 403.77414663 -251.9543457 381.10302734 C-252.22859375 380.33249023 -252.5028418 379.56195313 -252.78540039 378.76806641 C-253.6198286 376.29173225 -254.36189533 373.80322369 -255.0793457 371.29052734 C-255.35746094 370.37392334 -255.63557617 369.45731934 -255.92211914 368.51293945 C-258.89159815 357.14435439 -258.60221598 345.56422579 -258.58032227 333.8894043 C-258.57935421 330.25992381 -258.62099197 326.63259254 -258.6652832 323.00341797 C-258.84092405 288.7681988 -247.1083161 257.28392761 -226.0793457 230.29052734 C-225.65669434 229.74299805 -225.23404297 229.19546875 -224.79858398 228.63134766 C-219.6667724 222.02293915 -219.6667724 222.02293915 -217.0793457 219.29052734 C-216.4193457 219.29052734 -215.7593457 219.29052734 -215.0793457 219.29052734 C-214.7080957 218.36240234 -214.7080957 218.36240234 -214.3293457 217.41552734 C-212.87305931 214.93984048 -211.70122064 214.33927732 -209.0793457 213.29052734 C-209.0793457 212.63052734 -209.0793457 211.97052734 -209.0793457 211.29052734 C-206.12629821 208.54841182 -202.91522014 206.11758864 -199.75170898 203.62304688 C-198.08112834 202.29194773 -196.43642521 200.93372466 -194.79418945 199.56787109 C-186.43010278 192.6882247 -177.71511278 187.21633329 -168.0793457 182.29052734 C-167.39469238 181.93861328 -166.71003906 181.58669922 -166.00463867 181.22412109 C-130.4757627 163.18932758 -89.9390604 158.20318501 -50.5168457 162.04052734 C-49.82389404 162.10216064 -49.13094238 162.16379395 -48.41699219 162.22729492 C-44.00651892 162.73833881 -40.01408064 163.91306452 -35.81005859 165.34228516 C-34.19775108 165.88795135 -34.19775108 165.88795135 -32.5528717 166.44464111 C-31.73660812 166.72378357 -30.92034454 167.00292603 -30.0793457 167.29052734 C-30.08984168 166.21295717 -30.08984168 166.21295717 -30.1005497 165.1136179 C-30.27031942 147.61066867 -30.42857748 130.10765297 -30.57412148 112.60448551 C-30.64478207 104.13998922 -30.71929728 95.67556005 -30.80297852 87.21118164 C-30.87592955 79.83116615 -30.94155487 72.45112753 -30.99848974 65.07097048 C-31.02887201 61.16548057 -31.06285015 57.2600986 -31.10560989 53.35472298 C-31.1457989 49.6735487 -31.17613971 45.99242042 -31.19915962 42.31110001 C-31.214065 40.32678652 -31.23920463 38.34255802 -31.26472473 36.35835266 C-31.31592485 25.52358904 -30.32804689 16.76593181 -23.0793457 8.29052734 C-15.79153211 1.61597399 -9.69999421 -0.00924205 0 0 Z M-19.3918457 13.91552734 C-22.86825474 18.09451773 -23.20367635 20.44415219 -23.19960022 25.94692993 C-23.20045464 26.63875913 -23.20130907 27.33058833 -23.20218939 28.04338205 C-23.20384279 30.37269731 -23.19832509 32.70194132 -23.19287109 35.03125 C-23.19258917 36.69654844 -23.19274707 38.36184701 -23.1933136 40.02714539 C-23.19360136 44.55788501 -23.18770813 49.08859834 -23.18073964 53.61933184 C-23.17450249 58.35057983 -23.17390202 63.08182837 -23.17271423 67.81307983 C-23.16960199 76.77680039 -23.16139003 85.74050879 -23.15136474 94.70422399 C-23.14020031 104.90721849 -23.13469232 115.11021355 -23.12966931 125.31321263 C-23.11920733 146.30565766 -23.10160994 167.29809174 -23.0793457 188.29052734 C-23.7393457 188.29052734 -24.3993457 188.29052734 -25.0793457 188.29052734 C-25.1102832 186.80552734 -25.1102832 186.80552734 -25.1418457 185.29052734 C-26.0034434 179.39097647 -30.24544178 175.52469811 -34.7590332 171.96630859 C-45.60302582 165.48401079 -62.35448144 166.9181074 -74.6418457 166.97802734 C-75.42382324 166.97985016 -76.20580078 166.98167297 -77.01147461 166.98355103 C-128.3263264 167.18387732 -172.97531377 185.06617928 -209.8293457 220.72802734 C-230.40931717 241.84957701 -243.05095908 267.90906993 -250.0793457 296.29052734 C-250.34835693 297.30638916 -250.34835693 297.30638916 -250.62280273 298.34277344 C-258.94027717 330.43154025 -252.56695964 367.117672 -238.0793457 396.29052734 C-237.51989258 397.42232422 -236.96043945 398.55412109 -236.3840332 399.72021484 C-226.56846656 418.75784875 -211.10036898 434.91365817 -194.8605957 448.72412109 C-193.07055153 450.29826081 -191.42244353 451.95135884 -189.7668457 453.66552734 C-185.20999244 458.28423835 -180.16571572 462.27425914 -175.0793457 466.29052734 C-174.16282227 467.02400391 -173.24629883 467.75748047 -172.30200195 468.51318359 C-147.11147036 488.10581928 -116.48050029 500.31473109 -85.0793457 505.29052734 C-84.0392334 505.46712891 -82.99912109 505.64373047 -81.92749023 505.82568359 C-70.52833217 507.58108811 -59.21678673 507.68758317 -47.7043457 507.66552734 C-46.68699341 507.66531586 -45.66964111 507.66510437 -44.62145996 507.66488647 C-29.10259735 507.63268903 -14.22790478 506.95326933 0.9206543 503.29052734 C2.18546631 502.9937207 2.18546631 502.9937207 3.47583008 502.69091797 C18.93091616 498.97664879 32.88119199 492.62102784 46.9206543 485.29052734 C47.9519043 484.75814453 48.9831543 484.22576172 50.0456543 483.67724609 C84.9369378 464.57237211 110.73704576 429.29506908 122.02783203 391.60864258 C124.77358104 381.97401474 126.56535366 372.20934209 127.9206543 362.29052734 C128.01015571 361.64886407 128.09965712 361.00720079 128.19187069 360.34609318 C129.00587684 353.88163872 129.05511498 347.48663583 129.03417969 340.9777832 C129.03439873 339.17627808 129.03439873 339.17627808 129.03462219 337.33837891 C129.03404831 334.07246961 129.02906173 330.80660417 129.02204823 327.54070354 C129.01576174 324.11743409 129.01520673 320.69416361 129.01402283 317.27088928 C129.01092504 310.8006836 129.00273274 304.33049498 128.99267334 297.86029679 C128.98146378 290.48900942 128.97598959 283.1177212 128.9709779 275.74642742 C128.9605487 260.59445125 128.94297956 245.44249101 128.9206543 230.29052734 C129.93444656 230.701129 130.94823883 231.11173065 131.99275208 231.53477478 C133.34473622 232.07968191 134.69676389 232.62448107 136.04882812 233.16918945 C136.71440987 233.43909447 137.37999161 233.70899948 138.06574249 233.98708344 C143.81951345 236.30095036 149.6280946 238.20484859 155.6081543 239.85302734 C156.64834717 240.14258301 157.68854004 240.43213867 158.76025391 240.73046875 C171.30806742 244.09974598 184.08967687 246.30638984 196.9206543 248.29052734 C198.21874023 248.49291016 199.51682617 248.69529297 200.85424805 248.90380859 C206.84807439 249.60056443 212.89459728 249.55575179 218.9206543 249.60302734 C220.15299805 249.63203125 221.3853418 249.66103516 222.6550293 249.69091797 C230.93467653 249.74866229 236.50117679 249.10424635 242.9440918 243.54443359 C243.39010742 242.98626953 243.83612305 242.42810547 244.2956543 241.85302734 C244.75713867 241.29744141 245.21862305 240.74185547 245.6940918 240.16943359 C248.82451657 235.37410138 249.218089 230.93312991 249.21118164 225.32250977 C249.21789886 224.53483719 249.22461609 223.74716461 249.23153687 222.93562317 C249.25048997 220.33901612 249.25443982 217.74266796 249.2565918 215.14599609 C249.26302208 213.33384598 249.26975062 211.5216969 249.27676392 209.70954895 C249.28873031 205.91254267 249.29244545 202.11562732 249.29125977 198.31860352 C249.29105673 193.46647205 249.3183461 188.61492726 249.35280418 183.76293468 C249.37510451 180.01985526 249.37909633 176.27691627 249.37804031 172.53377724 C249.38039204 170.7457 249.38919135 168.95761864 249.40470505 167.16960716 C249.42442698 164.66157013 249.41850319 162.15478823 249.40649414 159.64672852 C249.41773315 158.91658539 249.42897217 158.18644226 249.44055176 157.43417358 C249.36464825 151.15728168 247.28641031 146.03205221 243.17456055 141.26708984 C238.23272577 137.31818723 234.4631156 134.91667241 227.9206543 135.29052734 C227.8278418 133.49615234 227.8278418 133.49615234 227.7331543 131.66552734 C227.1331645 127.12960451 225.40341287 124.23962468 221.9206543 121.29052734 C214.8191197 116.09152071 207.68756307 115.23194298 199.1081543 114.35302734 C157.69131851 109.34046675 157.69131851 109.34046675 146.5456543 95.85302734 C145.61262335 94.36708916 144.74683293 92.83842524 143.9206543 91.29052734 C143.6093457 90.7265625 143.29803711 90.16259766 142.97729492 89.58154297 C135.2269762 75.43321254 131.56909706 62.00884389 129.48999023 46.04663086 C128.37070459 38.09047787 126.75698427 33.02663978 120.1706543 27.97802734 C116.08641366 25.03768117 112.90174913 24.46842359 107.9206543 24.29052734 C107.8897168 22.80552734 107.8897168 22.80552734 107.8581543 21.29052734 C107.0908692 16.03675577 103.78554552 12.70946958 99.9206543 9.29052734 C92.87625002 4.57619525 85.71914692 4.1404142 77.39599609 4.14526367 C76.56101593 4.14190506 75.72603577 4.13854645 74.86575317 4.13508606 C72.11711115 4.12562055 69.36853034 4.12363512 66.61987305 4.12255859 C64.69944738 4.11934282 62.77902196 4.1159785 60.8585968 4.11247253 C56.83638949 4.10649217 52.81420363 4.1046315 48.79199219 4.10522461 C43.65431703 4.10532614 38.51678036 4.09167872 33.37913799 4.0744524 C29.4130033 4.06329835 25.44690172 4.06130645 21.48075294 4.06183434 C19.58745662 4.06065917 17.6941593 4.05626358 15.80087852 4.04850197 C13.14498755 4.03863371 10.48939249 4.04160696 7.83349609 4.04760742 C7.06176559 4.04198792 6.2900351 4.03636841 5.49491882 4.03057861 C-4.66600866 4.08850714 -12.48723458 6.0455796 -19.3918457 13.91552734 Z " fill="#030303" transform="translate(258.079345703125,-0.29052734375)"/>
<path d="M0 0 C2.32762133 0.00536937 4.65505045 0.00001931 6.98266602 -0.00634766 C14.63517339 -0.00940756 22.16141634 0.17316724 29.76586914 1.13037109 C29.76586914 7.07037109 29.76586914 13.01037109 29.76586914 19.13037109 C26.66631836 19.16904297 26.66631836 19.16904297 23.50415039 19.20849609 C-20.42715342 19.93012233 -59.25334159 31.81216723 -91.23413086 63.13037109 C-91.98178711 63.82775391 -92.72944336 64.52513672 -93.49975586 65.24365234 C-103.43880775 74.69357766 -110.49793596 86.30793996 -117.23413086 98.13037109 C-117.64405273 98.84580078 -118.05397461 99.56123047 -118.47631836 100.29833984 C-133.98641096 129.33169501 -137.2042339 166.60842802 -127.82788086 197.93115234 C-122.96937188 213.2371596 -116.13045359 229.11555166 -105.23413086 241.13037109 C-105.56413086 241.79037109 -105.89413086 242.45037109 -106.23413086 243.13037109 C-119.38937576 231.71103291 -129.63680519 219.31328618 -138.23413086 204.13037109 C-138.76651367 203.20224609 -139.29889648 202.27412109 -139.84741211 201.31787109 C-144.29667829 193.04016657 -146.98439071 184.23960738 -149.60717773 175.25292969 C-150.15261952 173.40632886 -150.74412372 171.57345627 -151.34350586 169.74365234 C-159.4640358 136.7985199 -150.75561153 100.13849504 -133.92163086 71.50537109 C-117.44498714 44.4888287 -92.56324941 21.9912702 -62.49194336 11.29833984 C-60.65591815 10.64010059 -58.826728 9.9584127 -57.02978516 9.19995117 C-50.72066039 6.54087797 -44.49207707 4.83570305 -37.79663086 3.44287109 C-36.83692383 3.23082031 -35.8772168 3.01876953 -34.88842773 2.80029297 C-23.26826917 0.3197608 -11.84036671 -0.03247701 0 0 Z " fill="#03F7EF" transform="translate(181.234130859375,186.86962890625)"/>
<path d="M0 0 C9 0 9 0 20 2 C20 28.4 20 54.8 20 82 C2.675 82.495 2.675 82.495 -15 83 C-33.97412502 88.05976667 -52.44488616 94.02907212 -63.12207031 111.87548828 C-69.01286561 122.42877461 -72.39164673 131.62855999 -72.3125 143.8125 C-72.30831055 144.69325195 -72.30412109 145.57400391 -72.29980469 146.48144531 C-72.15266527 154.96857218 -70.62324074 161.9908523 -66.75 169.5625 C-65.88375 171.2640625 -65.88375 171.2640625 -65 173 C-65.33 173.66 -65.66 174.32 -66 175 C-79.82468978 165.60021093 -89.07824372 154.63963342 -93 138 C-93.43208467 133.90780106 -93.47698809 129.86235819 -93.4375 125.75 C-93.42920166 124.64188965 -93.42090332 123.5337793 -93.41235352 122.39208984 C-93.14091471 109.24904227 -89.86062373 99.67636954 -82 89 C-81.48824219 88.29230469 -80.97648438 87.58460938 -80.44921875 86.85546875 C-69.86397686 73.53855153 -52.51129494 65.78652391 -36 63.4609375 C-24.35976536 62.17780015 -11.50065435 61.69986913 0 64 C0 42.88 0 21.76 0 0 Z " fill="#FF024F" transform="translate(211,206)"/>
<path d="M0 0 C1.68879014 0.01507559 3.3775933 0.0287589 5.06640625 0.04101562 C9.16959729 0.07379036 13.2721521 0.12541282 17.375 0.1875 C17.96438277 35.85875875 17.96438277 35.85875875 5.875 49.375 C-4.52446223 59.21663667 -19.19480989 63.74941759 -33.21875 63.4140625 C-37.84411104 63.10641234 -42.16721122 62.45177159 -46.625 61.1875 C-47.759375 60.878125 -48.89375 60.56875 -50.0625 60.25 C-54.31502103 56.82723917 -54.84313197 52.42795432 -55.625 47.1875 C-56.84216742 34.64015686 -53.50382376 24.95869713 -45.625 15.1875 C-32.5972871 1.4987615 -17.9150334 -0.27931852 0 0 Z M-41.16015625 19.12109375 C-46.06033995 26.03361955 -48.76806001 33.65445336 -48.8125 42.0625 C-48.82667969 43.27679688 -48.84085938 44.49109375 -48.85546875 45.7421875 C-48.63366733 49.05793082 -48.13609699 51.25134713 -46.625 54.1875 C-40.27657024 58.72209268 -29.92085904 57.89146658 -22.59765625 56.69140625 C-10.00026264 53.82172971 -0.72874922 48.50147976 7.00390625 37.96875 C10.36352195 31.15380306 10.74148041 23.67017492 11.0625 16.1875 C11.13307617 14.90166016 11.13307617 14.90166016 11.20507812 13.58984375 C11.30814862 11.45746721 11.34746929 9.32218857 11.375 7.1875 C9.12289409 4.93539409 4.41146631 5.42909092 1.375 5.1875 C0.70339844 5.13207031 0.03179687 5.07664062 -0.66015625 5.01953125 C-14.82875615 4.4462353 -31.32996298 8.37758179 -41.16015625 19.12109375 Z " fill="#030303" transform="translate(216.625,307.8125)"/>
<path d="M0 0 C5.94 0 11.88 0 18 0 C18.2475 2.10375 18.495 4.2075 18.75 6.375 C21.65400249 28.45619264 28.1589317 47.67084027 41 66 C41.99 67.485 41.99 67.485 43 69 C25.93677006 61.80271344 13.61039529 40.61989164 6.43359375 24.4765625 C0 8.30615672 0 8.30615672 0 0 Z " fill="#FF0550" transform="translate(346,43)"/>
<path d="M0 0 C2.20924769 1.05080227 4.27622622 2.17419257 6.34765625 3.48046875 C26.30449195 16.0288676 50.6558153 21.19502811 74 22 C74 27.61 74 33.22 74 39 C57.18070775 36.81567633 41.75232129 31.25779838 27 23 C26.01644531 22.45730469 25.03289062 21.91460937 24.01953125 21.35546875 C15.13854657 16.08839126 5.88810239 8.56637119 0 0 Z " fill="#08F7EF" transform="translate(390,113)"/>
<path d="M0 0 C3.53372712 1.96318174 6.24479785 4.04070881 9 7 C4.68381834 7 3.07210341 4.86729652 0 2 C0 1.34 0 0.68 0 0 Z " fill="#FF366C" transform="translate(81,434)"/>
</svg>
