<?xml version="1.0" encoding="UTF-8"?>
<svg version="1.1" xmlns="http://www.w3.org/2000/svg" width="256" height="256">
<path d="M0 0 C84.48 0 168.96 0 256 0 C256 84.48 256 168.96 256 256 C171.52 256 87.04 256 0 256 C0 171.52 0 87.04 0 0 Z " fill="#FEFEFE" transform="translate(0,0)"/>
<path d="M0 0 C5.76079781 -0.42403954 11.51235566 -0.73019909 17.28515625 -0.93383789 C19.2418436 -1.01875013 21.19747024 -1.1343578 23.15039062 -1.2824707 C38.84137897 -2.44164648 38.84137897 -2.44164648 43.99502563 1.54217529 C47.67542148 5.53489671 50.30419464 10.08669539 52.84075928 14.86306763 C54.39832013 17.7342592 56.24219899 20.35789784 58.13671875 23.015625 C59.32167742 24.75948998 60.50530172 26.50426252 61.6875 28.25 C62.95276536 30.11222357 64.21838937 31.97420351 65.484375 33.8359375 C66.08185547 34.71475586 66.67933594 35.59357422 67.29492188 36.49902344 C70.83223991 41.68749508 74.41198973 46.84648931 78 52 C80.89874417 50.70735873 82.76602526 49.43512432 84.8125 47.015625 C85.32433838 46.41741943 85.83617676 45.81921387 86.36352539 45.20288086 C86.90356201 44.55843018 87.44359863 43.91397949 88 43.25 C88.85549438 42.2456189 88.85549438 42.2456189 89.72827148 41.22094727 C90.91246558 39.83003844 92.09400398 38.43686448 93.27294922 37.04150391 C95.36596309 34.5674041 97.47673159 32.10896287 99.58935547 29.65161133 C101.06574041 27.93372955 102.53919479 26.21337949 104.01171875 24.4921875 C107.13046924 20.84694824 110.25257734 17.20459382 113.375 13.5625 C114.32032568 12.45964672 115.26563863 11.35678252 116.2109375 10.25390625 C116.66807129 9.72885498 117.12520508 9.20380371 117.59619141 8.6628418 C118.58991648 7.48575284 119.54748997 6.2777003 120.47802734 5.05004883 C124.28671161 0.16295753 124.28671161 0.16295753 127.9921875 -0.68359375 C129.41917969 -0.56177734 129.41917969 -0.56177734 130.875 -0.4375 C132.32519531 -0.34275391 132.32519531 -0.34275391 133.8046875 -0.24609375 C134.52914062 -0.16488281 135.25359375 -0.08367188 136 0 C134.43767979 3.67956291 132.16415918 6.16515793 129.4375 9.0625 C125.96608181 12.79595956 122.6408372 16.59216657 119.4375 20.5625 C115.84917586 25.00849037 112.0940452 29.25124677 108.24609375 33.47265625 C105.15665592 36.94894543 102.26101141 40.57050961 99.34375 44.19140625 C96.07417486 48.10944713 92.588646 51.79907227 89.06640625 55.4921875 C86.24302465 58.8783862 86.24302465 58.8783862 85 63 C86.36939995 65.43696001 87.68304697 67.30145344 89.4375 69.4375 C90.47141627 70.76775848 91.50112037 72.1012979 92.52734375 73.4375 C93.0879248 74.16324219 93.64850586 74.88898438 94.22607422 75.63671875 C97.47297764 79.96234841 100.47424709 84.4557747 103.5 88.9375 C104.78633893 90.83471638 106.07279594 92.73185271 107.359375 94.62890625 C107.97748047 95.54172363 108.59558594 96.45454102 109.23242188 97.39501953 C111.72302031 101.06555618 114.23384347 104.72195413 116.75 108.375 C117.18683105 109.00954102 117.62366211 109.64408203 118.07373047 110.29785156 C118.94258717 111.5598165 119.81156396 112.82169877 120.68066406 114.08349609 C122.05656474 116.0821675 123.43084346 118.08194566 124.8046875 120.08203125 C125.27189209 120.76209229 125.73909668 121.44215332 126.22045898 122.14282227 C127.14465026 123.488225 128.06864651 124.83376172 128.99243164 126.17944336 C131.2145542 129.41378119 133.44448238 132.64220723 135.69140625 135.859375 C136.11276855 136.46370361 136.53413086 137.06803223 136.96826172 137.69067383 C138.11628095 139.3354631 139.26703507 140.97834253 140.41796875 142.62109375 C142 145 142 145 142 146 C105.75476761 148.99477233 105.75476761 148.99477233 96.91210938 144.39306641 C92.47819556 140.25611897 90.22849144 135.14014257 88.07177734 129.55224609 C86.39783158 125.56604359 83.92384986 122.27848183 81.375 118.8125 C80.48238225 117.52531109 79.59433204 116.23494243 78.7109375 114.94140625 C78.27104492 114.30219238 77.83115234 113.66297852 77.37792969 113.00439453 C75.90891507 110.86750402 74.44252104 108.72883182 72.9765625 106.58984375 C72.47850098 105.86369873 71.98043945 105.13755371 71.46728516 104.3894043 C70.51575879 103.00201236 69.56487298 101.6141808 68.61474609 100.22583008 C66.85383063 97.65972661 65.10003454 95.12849264 63.1875 92.671875 C62 91 62 91 62 89 C53.92752469 96.98536227 46.42776391 105.37549343 39.3125 114.21875 C36.80028251 117.24020076 34.17589382 120.12431597 31.5 123 C27.90984378 126.86045031 24.45943917 130.7872656 21.125 134.875 C20.39152344 135.76574219 19.65804687 136.65648437 18.90234375 137.57421875 C17.02573212 139.87396363 17.02573212 139.87396363 15.75390625 142.01953125 C14.6875 143.6875 14.6875 143.6875 12 146 C7.95112364 146.48479967 4.05582215 146.34930526 0 146 C4.07331044 140.22119779 8.63472699 135.04756791 13.42578125 129.85546875 C15.87839159 127.13489492 18.20176921 124.35143324 20.5 121.5 C23.55348679 117.71539666 26.70668301 114.07792463 30 110.5 C34.10542948 106.03923195 37.96013966 101.43402384 41.75390625 96.70703125 C44.76094888 93.08289117 47.98383162 89.67998037 51.25 86.2890625 C53.24799015 83.67562003 53.74069587 82.26200989 54 79 C52.92082959 76.5693583 52.92082959 76.5693583 51.125 74.25390625 C50.47700439 73.34543945 49.82900879 72.43697266 49.16137695 71.50097656 C48.44812256 70.5312793 47.73486816 69.56158203 47 68.5625 C45.51319811 66.48648219 44.02754831 64.40963885 42.54296875 62.33203125 C41.78290527 61.27709473 41.0228418 60.2221582 40.23974609 59.13525391 C36.85210439 54.39314635 33.58019994 49.57518167 30.3125 44.75 C29.07578969 42.93210873 27.8388131 41.11439859 26.6015625 39.296875 C25.40102343 37.5312624 24.2005023 35.7656376 23 34 C20.73163121 30.66498033 18.46119812 27.3313888 16.1875 24 C15.66043457 23.22769043 15.13336914 22.45538086 14.59033203 21.65966797 C10.77059325 16.08138988 6.87298198 10.56304166 2.89331055 5.09765625 C0 1.10302888 0 1.10302888 0 0 Z " fill="#050505" transform="translate(57,55)"/>
<path d="M0 0 C15.74495492 -2.20266209 15.74495492 -2.20266209 20.81835938 1.23046875 C24.16115691 4.66223808 26.50281086 8.75389343 28.82324219 12.91845703 C30.25707949 15.45474269 31.85450048 17.84402367 33.49462891 20.25 C34.7349069 22.06954824 35.94612824 23.90637213 37.15625 25.74609375 C40.5828615 30.90959999 44.13915472 35.98225133 47.6875 41.0625 C53.68390888 49.64988871 59.61277922 58.27957293 65.49707031 66.9440918 C69.58983086 72.96010569 73.74483236 78.9282996 77.9375 84.875 C83.9719476 93.43929699 89.80453637 102.13038999 95.58374023 110.86865234 C98.31210319 114.99050976 101.03742969 119.09051067 103.96484375 123.07421875 C106 126 106 126 106 128 C90.47228417 130.48508423 90.47228417 130.48508423 85.1640625 126.68603516 C81.58763202 122.81935332 79.09362552 118.21464677 76.53369141 113.64013672 C73.77511392 108.89144889 70.57029128 104.44402026 67.4375 99.9375 C66.15791049 98.06012246 64.88053137 96.18123626 63.60546875 94.30078125 C59.19218799 87.80697045 54.74242168 81.33857579 50.28857422 74.87255859 C49.00426266 73.0061945 47.72244649 71.13814195 46.44140625 69.26953125 C41.07709383 61.44825115 35.67376861 53.65517706 30.25 45.875 C24.15600428 37.13188367 18.12052734 28.35094706 12.13574219 19.53271484 C11.5637207 18.69047363 10.99169922 17.84823242 10.40234375 16.98046875 C9.8491748 16.16497559 9.29600586 15.34948242 8.72607422 14.50927734 C6.29718103 10.97827816 3.79635154 7.49910572 1.28735352 4.0246582 C0 2 0 2 0 0 Z " fill="#F8F8F8" transform="translate(75,64)"/>
</svg>
