<?xml version="1.0" encoding="UTF-8"?>
<svg version="1.1" xmlns="http://www.w3.org/2000/svg" width="256" height="256">
<path d="M0 0 C84.48 0 168.96 0 256 0 C256 84.48 256 168.96 256 256 C171.52 256 87.04 256 0 256 C0 171.52 0 87.04 0 0 Z " fill="#000000" transform="translate(0,0)"/>
<path d="M0 0 C5.90323578 -0.42390665 11.79746384 -0.73015544 17.71240234 -0.93383789 C19.71755256 -1.0187691 21.7216669 -1.13438963 23.72314453 -1.2824707 C39.8321471 -2.44344371 39.8321471 -2.44344371 45.03463745 1.56936646 C48.73117592 5.57611358 51.37450417 10.12960776 53.89825439 14.93722534 C55.28084598 17.52582191 56.91206395 19.87675914 58.62890625 22.25390625 C59.60806334 23.68922328 60.58596937 25.12539474 61.5625 26.5625 C62.64045913 28.14334228 63.71858752 29.72406917 64.796875 31.3046875 C65.32474609 32.0790918 65.85261719 32.85349609 66.39648438 33.65136719 C69.0261305 37.50294996 71.66898967 41.34542511 74.3125 45.1875 C75.02418335 46.22209351 75.02418335 46.22209351 75.75024414 47.27758789 C76.83330412 48.85185735 77.91661993 50.4259508 79 52 C81.89874417 50.70735873 83.76602526 49.43512432 85.8125 47.015625 C86.32458008 46.41709717 86.83666016 45.81856934 87.36425781 45.2019043 C87.90405273 44.55777588 88.44384766 43.91364746 89 43.25 C89.5681543 42.58331299 90.13630859 41.91662598 90.72167969 41.22973633 C91.90377348 39.84184033 93.08310794 38.45158974 94.25976562 37.05908203 C96.90967604 33.92365211 99.57960433 30.80548181 102.25 27.6875 C102.74604736 27.10669678 103.24209473 26.52589355 103.75317383 25.92749023 C107.3760391 21.69549726 111.0765782 17.54445707 114.87109375 13.46484375 C117.09702707 10.97985984 117.09702707 10.97985984 119.09765625 7.94140625 C124.45491257 0.30901749 124.45491257 0.30901749 129.45703125 -0.69140625 C132.71182876 -0.68787993 135.78510319 -0.49192393 139 0 C139 2 139 2 137.0625 4 C136.60488281 4.44085938 136.14726562 4.88171875 135.67578125 5.3359375 C129.40180113 11.56604363 123.80422677 18.41560857 118.25 25.28125 C115.35642111 28.77765782 112.30650817 32.11508132 109.25 35.46875 C106.1383887 38.96931272 103.2158564 42.61178451 100.27734375 46.2578125 C97.27342728 49.87487831 94.08204922 53.29970823 90.84765625 56.7109375 C88.15008713 59.99670734 88.15008713 59.99670734 87 64 C88.28998795 66.8314804 90.16392873 69.17433374 92.0625 71.625 C93.19567512 73.15501848 94.32712751 74.68631406 95.45703125 76.21875 C96.04693848 77.00894531 96.6368457 77.79914063 97.24462891 78.61328125 C100.01576282 82.38109838 102.62967096 86.25152342 105.25 90.125 C110.08039149 97.21897534 114.96512867 104.27333866 119.875 111.3125 C125.42089221 119.27448452 130.94936525 127.24806927 136.4375 135.25 C137.40502197 136.65245972 137.40502197 136.65245972 138.39208984 138.08325195 C138.98328613 138.94781006 139.57448242 139.81236816 140.18359375 140.703125 C140.70493896 141.46270508 141.22628418 142.22228516 141.76342773 143.00488281 C143 145 143 145 144 148 C106.84303139 150.99476971 106.84303139 150.99476971 97.86474609 146.39306641 C93.4054716 142.26801761 91.18041467 137.16064701 89.05566406 131.55224609 C87.40253707 127.55553249 84.92675598 124.27709345 82.375 120.8125 C81.48227256 119.52538715 80.59422082 118.23501838 79.7109375 116.94140625 C79.27104492 116.30219238 78.83115234 115.66297852 78.37792969 115.00439453 C76.90891507 112.86750402 75.44252104 110.72883182 73.9765625 108.58984375 C73.47850098 107.86369873 72.98043945 107.13755371 72.46728516 106.3894043 C71.51575879 105.00201236 70.56487298 103.6141808 69.61474609 102.22583008 C67.85383063 99.65972661 66.10003454 97.12849264 64.1875 94.671875 C63 93 63 93 63 91 C59.3634792 93.73374815 56.56054579 96.5545659 53.75 100.125 C50.76360694 103.85304697 47.722137 107.47367524 44.5 111 C41.40444804 114.39598682 38.44848793 117.86171531 35.5625 121.4375 C31.68700314 126.23123305 27.61088395 130.78132138 23.390625 135.2734375 C20.95102491 137.93759132 20.95102491 137.93759132 19.046875 140.9140625 C17.17419002 143.70735313 15.62681641 145.89228189 13 148 C8.54211333 148.81753631 4.47442489 148.61386927 0 148 C1.56232021 144.32043709 3.83584082 141.83484207 6.5625 138.9375 C10.03391819 135.20404044 13.3591628 131.40783343 16.5625 127.4375 C19.44848793 123.86171531 22.40444804 120.39598682 25.5 117 C28.61458668 113.58260628 31.5918662 110.0947765 34.5 106.5 C38.14907508 101.99269298 41.94410483 97.65882598 45.84765625 93.37109375 C48.94721267 89.95651889 51.97577785 86.48125893 55 83 C53.66373151 79.31963762 52.01904989 76.34204267 49.76171875 73.1484375 C49.11291748 72.22426025 48.46411621 71.30008301 47.7956543 70.34790039 C47.09996338 69.36684326 46.40427246 68.38578613 45.6875 67.375 C44.22853992 65.29861732 42.77021546 63.2217879 41.3125 61.14453125 C40.58417969 60.10893066 39.85585937 59.07333008 39.10546875 58.00634766 C36.09956137 53.71428557 33.1391243 49.39199926 30.1875 45.0625 C29.13155348 43.5155956 28.07556469 41.96872006 27.01953125 40.421875 C26.51502441 39.68259766 26.01051758 38.94332031 25.49072266 38.18164062 C23.12571962 34.72050942 20.75071933 31.26628041 18.375 27.8125 C17.93510742 27.17223877 17.49521484 26.53197754 17.04199219 25.87231445 C14.68261557 22.4395864 12.31603712 19.01203977 9.94140625 15.58984375 C9.43883301 14.86369873 8.93625977 14.13755371 8.41845703 13.3894043 C7.45671963 12.00006951 6.49296631 10.61212724 5.52685547 9.22583008 C3.45443016 6.22825621 1.57807131 3.28224523 0 0 Z " fill="#F3F3F3" transform="translate(56,54)"/>
<path d="M0 0 C6.0214654 -0.89427704 12.04479989 -1.62486081 18 0 C22.32715267 3.50450007 24.74140023 7.64757519 27.48779297 12.43945312 C29.84879995 16.43723182 32.46962374 20.25396305 35.06591797 24.1015625 C37.10094388 27.12155032 39.10447542 30.16052561 41.10546875 33.203125 C44.28983473 37.99990935 47.62999722 42.65862932 51.0378418 47.29833984 C54.22972069 51.69318019 57.26850741 56.1895514 60.3125 60.6875 C61.62605847 62.62125925 62.93986217 64.55485195 64.25390625 66.48828125 C64.89086426 67.42623535 65.52782227 68.36418945 66.18408203 69.33056641 C68.6940811 73.02031228 71.21935407 76.69939504 73.75 80.375 C74.18803955 81.01139404 74.6260791 81.64778809 75.07739258 82.3034668 C75.9479539 83.56795752 76.81863933 84.83236282 77.68945312 86.09667969 C79.50040937 88.72674952 81.30934117 91.35820877 83.11816406 93.98974609 C84.03141057 95.31831001 84.94481914 96.64676255 85.85839844 97.97509766 C88.25200812 101.45554017 90.64324397 104.93758487 93.03125 108.421875 C93.52818359 109.14632812 94.02511719 109.87078125 94.53710938 110.6171875 C95.4870321 112.00212157 96.4362897 113.38751218 97.38476562 114.7734375 C99.14583495 117.33979339 100.89978456 119.871275 102.8125 122.328125 C104 124 104 124 104 126 C97.93677685 127.23739248 91.95269089 128.14203419 86 126 C80.52403876 121.56265281 77.21058688 114.91492185 73.72412109 108.90380859 C70.91736848 104.17660445 67.75806198 99.70199266 64.625 95.1875 C63.36311788 93.33433036 62.10271398 91.48015333 60.84375 89.625 C56.97714005 83.95134172 53.05536488 78.31710452 49.125 72.6875 C42.80231036 63.6287793 36.57282148 54.5102319 30.37573242 45.36523438 C25.44779408 38.10289007 20.46071549 30.88422219 15.4375 23.6875 C0 1.55966873 0 1.55966873 0 0 Z " fill="#030303" transform="translate(76,65)"/>
</svg>
